<svg xmlns="http://www.w3.org/2000/svg" xmlns:xlink="http://www.w3.org/1999/xlink" width="500" zoomAndPan="magnify" viewBox="0 0 375 374.999991" height="500" preserveAspectRatio="xMidYMid meet" version="1.0"><defs><clipPath id="3b06f039b9"><path d="M 12.183594 156.261719 L 363 156.261719 L 363 218.511719 L 12.183594 218.511719 Z M 12.183594 156.261719 " clip-rule="nonzero"/></clipPath><clipPath id="2fe0be6531"><path d="M 12.183594 181 L 357 181 L 357 218.511719 L 12.183594 218.511719 Z M 12.183594 181 " clip-rule="nonzero"/></clipPath><clipPath id="03472e909c"><path d="M 75 156.261719 L 88 156.261719 L 88 169 L 75 169 Z M 75 156.261719 " clip-rule="nonzero"/></clipPath><clipPath id="df985e009a"><path d="M 87 156.261719 L 101 156.261719 L 101 163 L 87 163 Z M 87 156.261719 " clip-rule="nonzero"/></clipPath></defs><g clip-path="url(#3b06f039b9)"><path fill="#ff999a" d="M 350.285156 206.0625 L 350.285156 199.835938 L 331.523438 199.835938 L 331.523438 187.386719 L 312.761719 187.386719 L 312.761719 181.160156 L 294 181.160156 L 294 187.386719 L 275.238281 187.386719 L 275.238281 193.613281 L 268.984375 193.613281 L 268.984375 181.160156 L 256.476562 181.160156 L 256.476562 174.9375 L 225.207031 174.9375 L 225.207031 181.160156 L 212.699219 181.160156 L 212.699219 187.386719 L 206.445312 187.386719 L 206.445312 193.613281 L 200.191406 193.613281 L 200.191406 199.835938 L 193.9375 199.835938 L 193.9375 206.0625 L 181.429688 206.0625 L 181.429688 199.835938 L 175.175781 199.835938 L 175.175781 193.613281 L 162.667969 193.613281 L 162.667969 187.386719 L 143.90625 187.386719 L 143.90625 193.613281 L 131.398438 193.613281 L 131.398438 181.160156 L 125.144531 181.160156 L 125.144531 174.9375 L 118.890625 174.9375 L 118.890625 168.710938 L 112.636719 168.710938 L 112.636719 162.488281 L 100.128906 162.488281 L 100.128906 156.261719 L 75.113281 156.261719 L 75.113281 162.488281 L 68.859375 162.488281 L 68.859375 168.710938 L 62.605469 168.710938 L 62.605469 174.9375 L 56.351562 174.9375 L 56.351562 181.160156 L 50.097656 181.160156 L 50.097656 174.9375 L 37.589844 174.9375 L 37.589844 181.160156 L 31.335938 181.160156 L 31.335938 187.386719 L 25.082031 187.386719 L 25.082031 193.613281 L 18.828125 193.613281 L 18.828125 199.835938 L 12.570312 199.835938 L 12.570312 212.285156 L 18.828125 212.285156 L 18.828125 218.511719 L 356.539062 218.511719 L 356.539062 212.285156 L 362.792969 212.285156 L 362.792969 206.0625 Z M 350.285156 206.0625 " fill-opacity="1" fill-rule="nonzero"/></g><g clip-path="url(#2fe0be6531)"><path fill="#5561d3" d="M 306.507812 212.285156 L 306.507812 206.0625 L 300.253906 206.0625 L 300.253906 212.285156 L 294 212.285156 L 294 206.0625 L 281.492188 206.0625 L 281.492188 199.835938 L 275.238281 199.835938 L 275.238281 193.613281 L 268.984375 193.613281 L 268.984375 199.835938 L 262.730469 199.835938 L 262.730469 206.0625 L 250.222656 206.0625 L 250.222656 212.285156 L 218.953125 212.285156 L 218.953125 206.0625 L 212.699219 206.0625 L 212.699219 193.613281 L 218.953125 193.613281 L 218.953125 187.386719 L 225.207031 187.386719 L 225.207031 181.160156 L 212.699219 181.160156 L 212.699219 187.386719 L 206.445312 187.386719 L 206.445312 193.613281 L 200.191406 193.613281 L 200.191406 199.835938 L 193.9375 199.835938 L 193.9375 206.0625 L 181.429688 206.0625 L 181.429688 212.285156 L 162.667969 212.285156 L 162.667969 206.0625 L 156.414062 206.0625 L 156.414062 212.285156 L 150.160156 212.285156 L 150.160156 206.0625 L 143.90625 206.0625 L 143.90625 193.613281 L 131.398438 193.613281 L 131.398438 199.835938 L 137.652344 199.835938 L 137.652344 206.0625 L 131.398438 206.0625 L 131.398438 212.285156 L 118.890625 212.285156 L 118.890625 206.0625 L 112.636719 206.0625 L 112.636719 212.285156 L 106.382812 212.285156 L 106.382812 206.0625 L 81.367188 206.0625 L 81.367188 212.285156 L 50.097656 212.285156 L 50.097656 206.0625 L 31.335938 206.0625 L 31.335938 199.835938 L 25.082031 199.835938 L 25.082031 193.613281 L 18.828125 193.613281 L 18.828125 199.835938 L 12.570312 199.835938 L 12.570312 212.285156 L 18.828125 212.285156 L 18.828125 218.511719 L 356.539062 218.511719 L 356.539062 212.285156 Z M 306.507812 212.285156 " fill-opacity="1" fill-rule="nonzero"/></g><path fill="#5561d3" d="M 56.351562 174.9375 L 62.605469 174.9375 L 62.605469 193.613281 L 56.351562 193.613281 Z M 56.351562 174.9375 " fill-opacity="1" fill-rule="nonzero"/><path fill="#5561d3" d="M 62.605469 193.613281 L 68.859375 193.613281 L 68.859375 199.835938 L 62.605469 199.835938 Z M 62.605469 193.613281 " fill-opacity="1" fill-rule="nonzero"/><path fill="#5561d3" d="M 68.859375 199.835938 L 81.367188 199.835938 L 81.367188 206.0625 L 68.859375 206.0625 Z M 68.859375 199.835938 " fill-opacity="1" fill-rule="nonzero"/><path fill="#5561d3" d="M 25.082031 187.386719 L 31.335938 187.386719 L 31.335938 193.613281 L 25.082031 193.613281 Z M 25.082031 187.386719 " fill-opacity="1" fill-rule="nonzero"/><path fill="#5561d3" d="M 62.605469 168.710938 L 68.859375 168.710938 L 68.859375 174.9375 L 62.605469 174.9375 Z M 62.605469 168.710938 " fill-opacity="1" fill-rule="nonzero"/><path fill="#5561d3" d="M 68.859375 162.488281 L 75.113281 162.488281 L 75.113281 168.710938 L 68.859375 168.710938 Z M 68.859375 162.488281 " fill-opacity="1" fill-rule="nonzero"/><path fill="#5561d3" d="M 275.238281 187.386719 L 294 187.386719 L 294 193.613281 L 275.238281 193.613281 Z M 275.238281 187.386719 " fill-opacity="1" fill-rule="nonzero"/><path fill="#8e68e6" d="M 25.082031 193.613281 L 31.335938 193.613281 L 31.335938 199.835938 L 25.082031 199.835938 Z M 25.082031 193.613281 " fill-opacity="1" fill-rule="nonzero"/><path fill="#8e68e6" d="M 31.335938 199.835938 L 50.097656 199.835938 L 50.097656 206.0625 L 31.335938 206.0625 Z M 31.335938 199.835938 " fill-opacity="1" fill-rule="nonzero"/><path fill="#8e68e6" d="M 31.335938 181.160156 L 37.589844 181.160156 L 37.589844 193.613281 L 31.335938 193.613281 Z M 31.335938 181.160156 " fill-opacity="1" fill-rule="nonzero"/><path fill="#8e68e6" d="M 68.859375 199.835938 L 62.605469 199.835938 L 62.605469 206.0625 L 50.097656 206.0625 L 50.097656 212.285156 L 81.367188 212.285156 L 81.367188 206.0625 L 68.859375 206.0625 Z M 68.859375 199.835938 " fill-opacity="1" fill-rule="nonzero"/><path fill="#8e68e6" d="M 81.367188 199.835938 L 81.367188 193.613281 L 75.113281 193.613281 L 75.113281 168.710938 L 68.859375 168.710938 L 68.859375 174.9375 L 62.605469 174.9375 L 62.605469 193.613281 L 68.859375 193.613281 L 68.859375 199.835938 Z M 81.367188 199.835938 " fill-opacity="1" fill-rule="nonzero"/><path fill="#8e68e6" d="M 81.367188 199.835938 L 106.382812 199.835938 L 106.382812 206.0625 L 81.367188 206.0625 Z M 81.367188 199.835938 " fill-opacity="1" fill-rule="nonzero"/><path fill="#8e68e6" d="M 106.382812 206.0625 L 112.636719 206.0625 L 112.636719 212.285156 L 106.382812 212.285156 Z M 106.382812 206.0625 " fill-opacity="1" fill-rule="nonzero"/><path fill="#8e68e6" d="M 125.144531 206.0625 L 118.890625 206.0625 L 118.890625 212.285156 L 131.398438 212.285156 L 131.398438 206.0625 L 137.652344 206.0625 L 137.652344 199.835938 L 125.144531 199.835938 Z M 125.144531 206.0625 " fill-opacity="1" fill-rule="nonzero"/><g clip-path="url(#03472e909c)"><path fill="#8e68e6" d="M 81.367188 162.488281 L 87.621094 162.488281 L 87.621094 156.261719 L 75.113281 156.261719 L 75.113281 168.710938 L 81.367188 168.710938 Z M 81.367188 162.488281 " fill-opacity="1" fill-rule="nonzero"/></g><path fill="#8e68e6" d="M 37.589844 174.9375 L 43.84375 174.9375 L 43.84375 181.160156 L 37.589844 181.160156 Z M 37.589844 174.9375 " fill-opacity="1" fill-rule="nonzero"/><path fill="#8e68e6" d="M 212.699219 193.613281 L 218.953125 193.613281 L 218.953125 206.0625 L 212.699219 206.0625 Z M 212.699219 193.613281 " fill-opacity="1" fill-rule="nonzero"/><path fill="#8e68e6" d="M 218.953125 206.0625 L 250.222656 206.0625 L 250.222656 212.285156 L 218.953125 212.285156 Z M 218.953125 206.0625 " fill-opacity="1" fill-rule="nonzero"/><path fill="#8e68e6" d="M 250.222656 199.835938 L 262.730469 199.835938 L 262.730469 206.0625 L 250.222656 206.0625 Z M 250.222656 199.835938 " fill-opacity="1" fill-rule="nonzero"/><path fill="#8e68e6" d="M 231.460938 181.160156 L 237.714844 181.160156 L 237.714844 174.9375 L 225.207031 174.9375 L 225.207031 187.386719 L 231.460938 187.386719 Z M 231.460938 181.160156 " fill-opacity="1" fill-rule="nonzero"/><path fill="#8e68e6" d="M 218.953125 187.386719 L 225.207031 187.386719 L 225.207031 193.613281 L 218.953125 193.613281 Z M 218.953125 187.386719 " fill-opacity="1" fill-rule="nonzero"/><path fill="#8e68e6" d="M 275.238281 199.835938 L 281.492188 199.835938 L 281.492188 206.0625 L 294 206.0625 L 294 212.285156 L 300.253906 212.285156 L 300.253906 199.835938 L 294 199.835938 L 294 193.613281 L 275.238281 193.613281 Z M 275.238281 199.835938 " fill-opacity="1" fill-rule="nonzero"/><path fill="#8e68e6" d="M 350.285156 206.0625 L 350.285156 199.835938 L 344.03125 199.835938 L 344.03125 206.0625 L 306.507812 206.0625 L 306.507812 212.285156 L 362.792969 212.285156 L 362.792969 206.0625 Z M 350.285156 206.0625 " fill-opacity="1" fill-rule="nonzero"/><path fill="#8e68e6" d="M 294 181.160156 L 300.253906 181.160156 L 300.253906 193.613281 L 294 193.613281 Z M 294 181.160156 " fill-opacity="1" fill-rule="nonzero"/><path fill="#fb6ba2" d="M 300.253906 181.160156 L 306.507812 181.160156 L 306.507812 187.386719 L 300.253906 187.386719 Z M 300.253906 181.160156 " fill-opacity="1" fill-rule="nonzero"/><path fill="#fb6ba2" d="M 218.953125 193.613281 L 225.207031 193.613281 L 225.207031 206.0625 L 218.953125 206.0625 Z M 218.953125 193.613281 " fill-opacity="1" fill-rule="nonzero"/><path fill="#fb6ba2" d="M 250.222656 193.613281 L 268.984375 193.613281 L 268.984375 199.835938 L 250.222656 199.835938 Z M 250.222656 193.613281 " fill-opacity="1" fill-rule="nonzero"/><path fill="#fb6ba2" d="M 106.382812 199.835938 L 125.144531 199.835938 L 125.144531 206.0625 L 106.382812 206.0625 Z M 106.382812 199.835938 " fill-opacity="1" fill-rule="nonzero"/><path fill="#fb6ba2" d="M 125.144531 181.160156 L 131.398438 181.160156 L 131.398438 199.835938 L 125.144531 199.835938 Z M 125.144531 181.160156 " fill-opacity="1" fill-rule="nonzero"/><path fill="#fb6ba2" d="M 81.367188 193.613281 L 106.382812 193.613281 L 106.382812 199.835938 L 81.367188 199.835938 Z M 81.367188 193.613281 " fill-opacity="1" fill-rule="nonzero"/><path fill="#fb6ba2" d="M 75.113281 181.160156 L 81.367188 181.160156 L 81.367188 193.613281 L 75.113281 193.613281 Z M 75.113281 181.160156 " fill-opacity="1" fill-rule="nonzero"/><path fill="#fb6ba2" d="M 143.90625 193.613281 L 150.160156 193.613281 L 150.160156 206.0625 L 143.90625 206.0625 Z M 143.90625 193.613281 " fill-opacity="1" fill-rule="nonzero"/><path fill="#fb6ba2" d="M 150.160156 206.0625 L 156.414062 206.0625 L 156.414062 212.285156 L 150.160156 212.285156 Z M 150.160156 206.0625 " fill-opacity="1" fill-rule="nonzero"/><path fill="#fb6ba2" d="M 162.667969 206.0625 L 181.429688 206.0625 L 181.429688 212.285156 L 162.667969 212.285156 Z M 162.667969 206.0625 " fill-opacity="1" fill-rule="nonzero"/><path fill="#fb6ba2" d="M 300.253906 199.835938 L 344.03125 199.835938 L 344.03125 206.0625 L 300.253906 206.0625 Z M 300.253906 199.835938 " fill-opacity="1" fill-rule="nonzero"/><path fill="#fb6ba2" d="M 294 193.613281 L 300.253906 193.613281 L 300.253906 199.835938 L 294 199.835938 Z M 294 193.613281 " fill-opacity="1" fill-rule="nonzero"/><path fill="#fb6ba2" d="M 81.367188 162.488281 L 87.621094 162.488281 L 87.621094 168.710938 L 81.367188 168.710938 Z M 81.367188 162.488281 " fill-opacity="1" fill-rule="nonzero"/><g clip-path="url(#df985e009a)"><path fill="#fb6ba2" d="M 87.621094 156.261719 L 100.128906 156.261719 L 100.128906 162.488281 L 87.621094 162.488281 Z M 87.621094 156.261719 " fill-opacity="1" fill-rule="nonzero"/></g><path fill="#fb6ba2" d="M 43.84375 174.9375 L 50.097656 174.9375 L 50.097656 181.160156 L 43.84375 181.160156 Z M 43.84375 174.9375 " fill-opacity="1" fill-rule="nonzero"/><path fill="#fb6ba2" d="M 87.621094 174.9375 L 93.875 174.9375 L 93.875 187.386719 L 87.621094 187.386719 Z M 87.621094 174.9375 " fill-opacity="1" fill-rule="nonzero"/><path fill="#fb6ba2" d="M 100.128906 181.160156 L 112.636719 181.160156 L 112.636719 187.386719 L 100.128906 187.386719 Z M 100.128906 181.160156 " fill-opacity="1" fill-rule="nonzero"/><path fill="#fb6ba2" d="M 243.96875 181.160156 L 256.476562 181.160156 L 256.476562 187.386719 L 243.96875 187.386719 Z M 243.96875 181.160156 " fill-opacity="1" fill-rule="nonzero"/><path fill="#fb6ba2" d="M 237.714844 199.835938 L 250.222656 199.835938 L 250.222656 206.0625 L 237.714844 206.0625 Z M 237.714844 199.835938 " fill-opacity="1" fill-rule="nonzero"/><path fill="#fb6ba2" d="M 50.097656 199.835938 L 62.605469 199.835938 L 62.605469 206.0625 L 50.097656 206.0625 Z M 50.097656 199.835938 " fill-opacity="1" fill-rule="nonzero"/><path fill="#ffe14d" d="M 237.714844 174.9375 L 256.476562 174.9375 L 256.476562 181.160156 L 237.714844 181.160156 Z M 237.714844 174.9375 " fill-opacity="1" fill-rule="nonzero"/><path fill="#ffe14d" d="M 262.730469 181.160156 L 268.984375 181.160156 L 268.984375 187.386719 L 262.730469 187.386719 Z M 262.730469 181.160156 " fill-opacity="1" fill-rule="nonzero"/><path fill="#ffe14d" d="M 306.507812 181.160156 L 312.761719 181.160156 L 312.761719 187.386719 L 306.507812 187.386719 Z M 306.507812 181.160156 " fill-opacity="1" fill-rule="nonzero"/><path fill="#ffe14d" d="M 319.015625 187.386719 L 331.523438 187.386719 L 331.523438 193.613281 L 319.015625 193.613281 Z M 319.015625 187.386719 " fill-opacity="1" fill-rule="nonzero"/><path fill="#ffe14d" d="M 150.160156 187.386719 L 162.667969 187.386719 L 162.667969 193.613281 L 150.160156 193.613281 Z M 150.160156 187.386719 " fill-opacity="1" fill-rule="nonzero"/><path fill="#ffe14d" d="M 168.921875 193.613281 L 175.175781 193.613281 L 175.175781 199.835938 L 168.921875 199.835938 Z M 168.921875 193.613281 " fill-opacity="1" fill-rule="nonzero"/><path fill="#ffe14d" d="M 106.382812 162.488281 L 112.636719 162.488281 L 112.636719 168.710938 L 106.382812 168.710938 Z M 106.382812 162.488281 " fill-opacity="1" fill-rule="nonzero"/><path fill="#ffe14d" d="M 112.636719 168.710938 L 118.890625 168.710938 L 118.890625 174.9375 L 112.636719 174.9375 Z M 112.636719 168.710938 " fill-opacity="1" fill-rule="nonzero"/><path fill="#ffe14d" d="M 118.890625 174.9375 L 125.144531 174.9375 L 125.144531 181.160156 L 118.890625 181.160156 Z M 118.890625 174.9375 " fill-opacity="1" fill-rule="nonzero"/><path fill="#ffe14d" d="M 50.097656 181.160156 L 56.351562 181.160156 L 56.351562 187.386719 L 50.097656 187.386719 Z M 50.097656 181.160156 " fill-opacity="1" fill-rule="nonzero"/></svg>